<?xml version="1.0" encoding="UTF-8"?><svg id="Layer_1" xmlns="http://www.w3.org/2000/svg" viewBox="0 0 180 180"><defs><style>.cls-1{fill:#02963a;}</style></defs><path class="cls-1" d="M32.3,101.6l-4.21,10.25s6.63,1.79,12.67,.85c6.04-.95,15-8.06,15.79-15.18,.79-7.12-3.56-11-5.74-13.69-2.18-2.69-1.83-5.08,.94-6.57s7.18-1.24,9.95,3.68l3.22-8.06s-8.37-3.93-17.23,.35c-8.86,4.28-8.86,12.64-7.23,15.98,1.63,3.34,6.44,4.58,6.58,8.56,.15,3.98-2.47,7.17-7.08,7.12-4.6-.05-5.35-.8-7.67-3.29h0Zm27.07,14.21s2.49-6.12,5.05-13.25c5.49-15.12,6.68-16.24,8.65-16.31,1.97-.08,1.63,2.02,1.56,3.96-.26,6.35-8.87,15.6-10.43,16.84-1.72,1.18-1.19,1.15-.75,1.08,14.21-2.14,18.27-13.99,18.61-16.08,1.44-9.46-3.96-10.01-6.78-9.86-2.82,.15-11.63,1.29-11.63,1.29l-12.82,33.5,8.55-1.17Zm27.39-11.08s5.69-14.58,6.14-15.83c3.02-4.73,7.62-3.58,7.62-3.58l2.97-7.62s-1.44-.3-4.51,.6c-3.07,.9-5.94,4.78-5.94,4.78l1.19-3.73-6.09,.65-10.05,25.78,8.66-1.04Zm18.86-27.18l-10,25.83,8.81-.95,10-25.93-8.81,1.05Zm15.94-6.32l-1.63,4.68-3.71,.2-2.28,6.22,3.66-.25-7.77,19.51,8.61-1.09,7.67-19.81,4.16-.55,2.23-6.02-4.16,.45,3.02-7.62-9.8,4.28h0Zm25.74,17.52c-.37,.52-5.45,6.22-9.4,5.08-3.96-1.14-2.48-5.57-1.19-8.21,1.29-2.64,5-10.1,7.47-9.61,1.04,.45,1.14,2.19-2.72,7.27-.74,1.1-1.63,2.04-4.46,3.83-.3,.6-.25,1.29,5.5-.7,5.74-1.99,8.07-6.27,8.22-9.61s-4.46-4.43-7.33-3.78c-2.87,.65-11.09,2.89-15.94,14.34-.99,2.04-3.02,10.85,5.64,11.65,3.02,.25,10-1.39,14.95-9.11,.2-.55-.35-1.69-.74-1.15h0Zm-30.38-22.71c-1.45-1.45-4.5-.74-6.82,1.6-2.32,2.34-3.03,5.41-1.59,6.86,1.44,1.45,4.5,.74,6.82-1.6,2.32-2.34,3.03-5.41,1.59-6.86Zm44.29,56.26c-76.63-41.51-121.78,30.21-121.78,30.21C30.52,103.74,2.01,110.61,2.01,110.61,49.23,94.28,31.26,44.8,31.26,44.8c60.89,54.66,116.23-17.32,116.23-17.32,0,0-9.16,29.17,1.78,34.64,10.94,5.48,28.71-.9,28.71-.9-40.99,26.43-16.78,61.08-16.78,61.08h0Zm3.96-54.31s-31.88,6.47-24.65-25.98c0,0-45.47,53.44-103.96,9.66,0,0,12.97,41.29-29.8,57.64,0,0,29.78-1.27,35.57,28.67,0,0,45.12-52.96,114.53-21.11,0,0-16.83-27.18,8.32-48.88h0Zm-19.45,32.69c0-1.13-.91-2.05-2.04-2.05s-2.04,.92-2.04,2.05,.91,2.05,2.04,2.05,2.04-.92,2.04-2.05Zm-.29,0c0,.97-.78,1.76-1.75,1.76s-1.75-.79-1.75-1.76,.79-1.76,1.75-1.76,1.75,.79,1.75,1.76Zm-.59-.58c-.09,.47-.4,.62-.74,.65l.4,1.09h-.62l-.06-.15-.31-.9h-.25l-.22,1.06h-.53l.22-1.09,.31-1.43h.93c.65,0,.99,.19,.87,.78h0Zm-.99-.34h-.37l-.13,.62h.47c.25,0,.4-.06,.46-.34,.03-.25-.22-.28-.43-.28Z"/></svg>